<mxfile host="app.diagrams.net" modified="2020-10-23T05:13:28.162Z" agent="5.0 (Windows NT 10.0; Win64; x64) AppleWebKit/537.36 (KHTML, like Gecko) Chrome/86.0.4240.75 Safari/537.36" etag="MJ0Bov9KVY_kyC0kzpFG" version="13.8.1" type="github" pages="2">
  <diagram id="iuwPVJVjt5R0PI-njhCQ" name="Page-1">
    <mxGraphModel dx="1422" dy="794" grid="1" gridSize="10" guides="1" tooltips="1" connect="1" arrows="1" fold="1" page="1" pageScale="1" pageWidth="850" pageHeight="1100" math="0" shadow="0">
      <root>
        <mxCell id="eqZNkJ4v6eIGPr0mjmSq-0" />
        <mxCell id="eqZNkJ4v6eIGPr0mjmSq-1" parent="eqZNkJ4v6eIGPr0mjmSq-0" />
      </root>
    </mxGraphModel>
  </diagram>
  <diagram id="MnbiyggumOvIFVUSPloO" name="Page-2">
    <mxGraphModel dx="1422" dy="794" grid="1" gridSize="10" guides="1" tooltips="1" connect="1" arrows="1" fold="1" page="1" pageScale="1" pageWidth="850" pageHeight="1100" math="0" shadow="0">
      <root>
        <mxCell id="tAxHid7WyzssdA7N4AqU-0" />
        <mxCell id="tAxHid7WyzssdA7N4AqU-1" parent="tAxHid7WyzssdA7N4AqU-0" />
        <mxCell id="tAxHid7WyzssdA7N4AqU-2" value="" style="shape=table;html=1;whiteSpace=wrap;startSize=0;container=1;collapsible=0;childLayout=tableLayout;" vertex="1" parent="tAxHid7WyzssdA7N4AqU-1">
          <mxGeometry x="140" y="40" width="620" height="660" as="geometry" />
        </mxCell>
        <mxCell id="tAxHid7WyzssdA7N4AqU-3" value="" style="shape=partialRectangle;html=1;whiteSpace=wrap;collapsible=0;dropTarget=0;pointerEvents=0;fillColor=none;top=0;left=0;bottom=0;right=0;points=[[0,0.5],[1,0.5]];portConstraint=eastwest;" vertex="1" parent="tAxHid7WyzssdA7N4AqU-2">
          <mxGeometry width="620" height="40" as="geometry" />
        </mxCell>
        <mxCell id="tAxHid7WyzssdA7N4AqU-4" value="The Clerk" style="shape=partialRectangle;html=1;whiteSpace=wrap;connectable=0;overflow=hidden;fillColor=none;top=0;left=0;bottom=0;right=0;" vertex="1" parent="tAxHid7WyzssdA7N4AqU-3">
          <mxGeometry width="156" height="40" as="geometry" />
        </mxCell>
        <mxCell id="tAxHid7WyzssdA7N4AqU-5" value="Order Fulfillment System" style="shape=partialRectangle;html=1;whiteSpace=wrap;connectable=0;overflow=hidden;fillColor=none;top=0;left=0;bottom=0;right=0;" vertex="1" parent="tAxHid7WyzssdA7N4AqU-3">
          <mxGeometry x="156" width="154" height="40" as="geometry" />
        </mxCell>
        <mxCell id="tAxHid7WyzssdA7N4AqU-6" value="Finance System" style="shape=partialRectangle;html=1;whiteSpace=wrap;connectable=0;overflow=hidden;fillColor=none;top=0;left=0;bottom=0;right=0;" vertex="1" parent="tAxHid7WyzssdA7N4AqU-3">
          <mxGeometry x="310" width="156" height="40" as="geometry" />
        </mxCell>
        <mxCell id="tAxHid7WyzssdA7N4AqU-7" value="Delivery System" style="shape=partialRectangle;html=1;whiteSpace=wrap;connectable=0;overflow=hidden;fillColor=none;top=0;left=0;bottom=0;right=0;" vertex="1" parent="tAxHid7WyzssdA7N4AqU-3">
          <mxGeometry x="466" width="154" height="40" as="geometry" />
        </mxCell>
        <mxCell id="tAxHid7WyzssdA7N4AqU-8" value="" style="shape=partialRectangle;html=1;whiteSpace=wrap;collapsible=0;dropTarget=0;pointerEvents=0;fillColor=none;top=0;left=0;bottom=0;right=0;points=[[0,0.5],[1,0.5]];portConstraint=eastwest;" vertex="1" parent="tAxHid7WyzssdA7N4AqU-2">
          <mxGeometry y="40" width="620" height="620" as="geometry" />
        </mxCell>
        <mxCell id="tAxHid7WyzssdA7N4AqU-9" value="" style="shape=partialRectangle;html=1;whiteSpace=wrap;connectable=0;overflow=hidden;fillColor=none;top=0;left=0;bottom=0;right=0;" vertex="1" parent="tAxHid7WyzssdA7N4AqU-8">
          <mxGeometry width="156" height="620" as="geometry" />
        </mxCell>
        <mxCell id="tAxHid7WyzssdA7N4AqU-10" value="" style="shape=partialRectangle;html=1;whiteSpace=wrap;connectable=0;overflow=hidden;fillColor=none;top=0;left=0;bottom=0;right=0;" vertex="1" parent="tAxHid7WyzssdA7N4AqU-8">
          <mxGeometry x="156" width="154" height="620" as="geometry" />
        </mxCell>
        <mxCell id="tAxHid7WyzssdA7N4AqU-11" value="" style="shape=partialRectangle;html=1;whiteSpace=wrap;connectable=0;overflow=hidden;fillColor=none;top=0;left=0;bottom=0;right=0;" vertex="1" parent="tAxHid7WyzssdA7N4AqU-8">
          <mxGeometry x="310" width="156" height="620" as="geometry" />
        </mxCell>
        <mxCell id="tAxHid7WyzssdA7N4AqU-12" value="" style="shape=partialRectangle;html=1;whiteSpace=wrap;connectable=0;overflow=hidden;fillColor=none;top=0;left=0;bottom=0;right=0;" vertex="1" parent="tAxHid7WyzssdA7N4AqU-8">
          <mxGeometry x="466" width="154" height="620" as="geometry" />
        </mxCell>
        <mxCell id="tAxHid7WyzssdA7N4AqU-18" style="edgeStyle=orthogonalEdgeStyle;rounded=0;orthogonalLoop=1;jettySize=auto;html=1;exitX=0.5;exitY=1;exitDx=0;exitDy=0;entryX=0.5;entryY=0;entryDx=0;entryDy=0;" edge="1" parent="tAxHid7WyzssdA7N4AqU-1" source="tAxHid7WyzssdA7N4AqU-13" target="tAxHid7WyzssdA7N4AqU-14">
          <mxGeometry relative="1" as="geometry" />
        </mxCell>
        <mxCell id="tAxHid7WyzssdA7N4AqU-13" value="" style="ellipse;whiteSpace=wrap;html=1;aspect=fixed;" vertex="1" parent="tAxHid7WyzssdA7N4AqU-1">
          <mxGeometry x="210" y="100" width="10" height="10" as="geometry" />
        </mxCell>
        <mxCell id="tAxHid7WyzssdA7N4AqU-22" style="edgeStyle=orthogonalEdgeStyle;rounded=0;orthogonalLoop=1;jettySize=auto;html=1;exitX=1;exitY=0.5;exitDx=0;exitDy=0;" edge="1" parent="tAxHid7WyzssdA7N4AqU-1" source="tAxHid7WyzssdA7N4AqU-14" target="tAxHid7WyzssdA7N4AqU-21">
          <mxGeometry relative="1" as="geometry" />
        </mxCell>
        <mxCell id="tAxHid7WyzssdA7N4AqU-14" value="Process Order" style="ellipse;whiteSpace=wrap;html=1;" vertex="1" parent="tAxHid7WyzssdA7N4AqU-1">
          <mxGeometry x="155" y="130" width="120" height="40" as="geometry" />
        </mxCell>
        <mxCell id="tAxHid7WyzssdA7N4AqU-24" style="edgeStyle=orthogonalEdgeStyle;rounded=0;orthogonalLoop=1;jettySize=auto;html=1;entryX=0.5;entryY=0;entryDx=0;entryDy=0;" edge="1" parent="tAxHid7WyzssdA7N4AqU-1" source="tAxHid7WyzssdA7N4AqU-21" target="tAxHid7WyzssdA7N4AqU-23">
          <mxGeometry relative="1" as="geometry" />
        </mxCell>
        <mxCell id="tAxHid7WyzssdA7N4AqU-21" value="Enter order details" style="ellipse;whiteSpace=wrap;html=1;" vertex="1" parent="tAxHid7WyzssdA7N4AqU-1">
          <mxGeometry x="320" y="125" width="120" height="50" as="geometry" />
        </mxCell>
        <mxCell id="tAxHid7WyzssdA7N4AqU-27" style="edgeStyle=orthogonalEdgeStyle;rounded=0;orthogonalLoop=1;jettySize=auto;html=1;exitX=1;exitY=0.5;exitDx=0;exitDy=0;entryX=0;entryY=0.5;entryDx=0;entryDy=0;" edge="1" parent="tAxHid7WyzssdA7N4AqU-1" source="tAxHid7WyzssdA7N4AqU-23" target="tAxHid7WyzssdA7N4AqU-25">
          <mxGeometry relative="1" as="geometry" />
        </mxCell>
        <mxCell id="tAxHid7WyzssdA7N4AqU-23" value="Validate data conform to proper format" style="ellipse;whiteSpace=wrap;html=1;" vertex="1" parent="tAxHid7WyzssdA7N4AqU-1">
          <mxGeometry x="320" y="200" width="120" height="50" as="geometry" />
        </mxCell>
        <mxCell id="tAxHid7WyzssdA7N4AqU-31" style="edgeStyle=orthogonalEdgeStyle;rounded=0;orthogonalLoop=1;jettySize=auto;html=1;exitX=0.5;exitY=1;exitDx=0;exitDy=0;entryX=0.5;entryY=0;entryDx=0;entryDy=0;" edge="1" parent="tAxHid7WyzssdA7N4AqU-1" source="tAxHid7WyzssdA7N4AqU-25" target="tAxHid7WyzssdA7N4AqU-29">
          <mxGeometry relative="1" as="geometry" />
        </mxCell>
        <mxCell id="tAxHid7WyzssdA7N4AqU-25" value="Validate credit worthiness" style="ellipse;whiteSpace=wrap;html=1;" vertex="1" parent="tAxHid7WyzssdA7N4AqU-1">
          <mxGeometry x="470" y="200" width="120" height="50" as="geometry" />
        </mxCell>
        <mxCell id="tAxHid7WyzssdA7N4AqU-28" style="edgeStyle=orthogonalEdgeStyle;rounded=0;orthogonalLoop=1;jettySize=auto;html=1;exitX=0.5;exitY=1;exitDx=0;exitDy=0;" edge="1" parent="tAxHid7WyzssdA7N4AqU-1" source="tAxHid7WyzssdA7N4AqU-23" target="tAxHid7WyzssdA7N4AqU-23">
          <mxGeometry relative="1" as="geometry" />
        </mxCell>
        <mxCell id="tAxHid7WyzssdA7N4AqU-33" style="edgeStyle=orthogonalEdgeStyle;rounded=0;orthogonalLoop=1;jettySize=auto;html=1;exitX=0;exitY=0.5;exitDx=0;exitDy=0;entryX=1;entryY=0.5;entryDx=0;entryDy=0;" edge="1" parent="tAxHid7WyzssdA7N4AqU-1" source="tAxHid7WyzssdA7N4AqU-29" target="tAxHid7WyzssdA7N4AqU-32">
          <mxGeometry relative="1" as="geometry" />
        </mxCell>
        <mxCell id="tAxHid7WyzssdA7N4AqU-29" value="" style="rhombus;whiteSpace=wrap;html=1;" vertex="1" parent="tAxHid7WyzssdA7N4AqU-1">
          <mxGeometry x="515" y="270" width="30" height="30" as="geometry" />
        </mxCell>
        <mxCell id="tAxHid7WyzssdA7N4AqU-30" value="Enough credit worthiness?" style="text;html=1;strokeColor=none;fillColor=none;align=center;verticalAlign=middle;whiteSpace=wrap;rounded=0;" vertex="1" parent="tAxHid7WyzssdA7N4AqU-1">
          <mxGeometry x="560" y="260" width="40" height="40" as="geometry" />
        </mxCell>
        <mxCell id="tAxHid7WyzssdA7N4AqU-36" style="edgeStyle=orthogonalEdgeStyle;rounded=0;orthogonalLoop=1;jettySize=auto;html=1;exitX=0.5;exitY=1;exitDx=0;exitDy=0;entryX=0.5;entryY=0;entryDx=0;entryDy=0;" edge="1" parent="tAxHid7WyzssdA7N4AqU-1" source="tAxHid7WyzssdA7N4AqU-32" target="tAxHid7WyzssdA7N4AqU-35">
          <mxGeometry relative="1" as="geometry" />
        </mxCell>
        <mxCell id="tAxHid7WyzssdA7N4AqU-32" value="Retrieve product details" style="ellipse;whiteSpace=wrap;html=1;" vertex="1" parent="tAxHid7WyzssdA7N4AqU-1">
          <mxGeometry x="320" y="260" width="120" height="50" as="geometry" />
        </mxCell>
        <mxCell id="tAxHid7WyzssdA7N4AqU-34" value="Yes" style="text;html=1;strokeColor=none;fillColor=none;align=center;verticalAlign=middle;whiteSpace=wrap;rounded=0;" vertex="1" parent="tAxHid7WyzssdA7N4AqU-1">
          <mxGeometry x="470" y="260" width="40" height="20" as="geometry" />
        </mxCell>
        <mxCell id="tAxHid7WyzssdA7N4AqU-38" style="edgeStyle=orthogonalEdgeStyle;rounded=0;orthogonalLoop=1;jettySize=auto;html=1;exitX=1;exitY=0.5;exitDx=0;exitDy=0;entryX=0;entryY=0.5;entryDx=0;entryDy=0;" edge="1" parent="tAxHid7WyzssdA7N4AqU-1" source="tAxHid7WyzssdA7N4AqU-35" target="tAxHid7WyzssdA7N4AqU-37">
          <mxGeometry relative="1" as="geometry" />
        </mxCell>
        <mxCell id="tAxHid7WyzssdA7N4AqU-35" value="Inform Delivery system with required details" style="ellipse;whiteSpace=wrap;html=1;" vertex="1" parent="tAxHid7WyzssdA7N4AqU-1">
          <mxGeometry x="320" y="330" width="120" height="50" as="geometry" />
        </mxCell>
        <mxCell id="tAxHid7WyzssdA7N4AqU-41" style="edgeStyle=orthogonalEdgeStyle;rounded=0;orthogonalLoop=1;jettySize=auto;html=1;exitX=0.5;exitY=1;exitDx=0;exitDy=0;entryX=0.5;entryY=0;entryDx=0;entryDy=0;" edge="1" parent="tAxHid7WyzssdA7N4AqU-1" source="tAxHid7WyzssdA7N4AqU-37" target="tAxHid7WyzssdA7N4AqU-40">
          <mxGeometry relative="1" as="geometry" />
        </mxCell>
        <mxCell id="tAxHid7WyzssdA7N4AqU-37" value="Proceed to deliver order to customer" style="ellipse;whiteSpace=wrap;html=1;" vertex="1" parent="tAxHid7WyzssdA7N4AqU-1">
          <mxGeometry x="620" y="327.5" width="120" height="55" as="geometry" />
        </mxCell>
        <mxCell id="tAxHid7WyzssdA7N4AqU-43" style="edgeStyle=orthogonalEdgeStyle;rounded=0;orthogonalLoop=1;jettySize=auto;html=1;exitX=0;exitY=0.5;exitDx=0;exitDy=0;entryX=1;entryY=0.5;entryDx=0;entryDy=0;" edge="1" parent="tAxHid7WyzssdA7N4AqU-1" source="tAxHid7WyzssdA7N4AqU-40" target="tAxHid7WyzssdA7N4AqU-42">
          <mxGeometry relative="1" as="geometry" />
        </mxCell>
        <mxCell id="tAxHid7WyzssdA7N4AqU-40" value="Generate delivery status" style="ellipse;whiteSpace=wrap;html=1;" vertex="1" parent="tAxHid7WyzssdA7N4AqU-1">
          <mxGeometry x="620" y="400" width="120" height="50" as="geometry" />
        </mxCell>
        <mxCell id="tAxHid7WyzssdA7N4AqU-45" style="edgeStyle=orthogonalEdgeStyle;rounded=0;orthogonalLoop=1;jettySize=auto;html=1;exitX=0.5;exitY=1;exitDx=0;exitDy=0;entryX=0.5;entryY=0;entryDx=0;entryDy=0;" edge="1" parent="tAxHid7WyzssdA7N4AqU-1" source="tAxHid7WyzssdA7N4AqU-42" target="tAxHid7WyzssdA7N4AqU-44">
          <mxGeometry relative="1" as="geometry" />
        </mxCell>
        <mxCell id="tAxHid7WyzssdA7N4AqU-42" value="Store purchase order details with delivery status" style="ellipse;whiteSpace=wrap;html=1;" vertex="1" parent="tAxHid7WyzssdA7N4AqU-1">
          <mxGeometry x="310" y="397.5" width="130" height="55" as="geometry" />
        </mxCell>
        <mxCell id="tAxHid7WyzssdA7N4AqU-47" style="edgeStyle=orthogonalEdgeStyle;rounded=0;orthogonalLoop=1;jettySize=auto;html=1;exitX=0;exitY=0.5;exitDx=0;exitDy=0;entryX=1;entryY=0.5;entryDx=0;entryDy=0;" edge="1" parent="tAxHid7WyzssdA7N4AqU-1" source="tAxHid7WyzssdA7N4AqU-44" target="tAxHid7WyzssdA7N4AqU-46">
          <mxGeometry relative="1" as="geometry" />
        </mxCell>
        <mxCell id="tAxHid7WyzssdA7N4AqU-44" value="Send purchase order status" style="ellipse;whiteSpace=wrap;html=1;" vertex="1" parent="tAxHid7WyzssdA7N4AqU-1">
          <mxGeometry x="315" y="520" width="120" height="40" as="geometry" />
        </mxCell>
        <mxCell id="tAxHid7WyzssdA7N4AqU-49" style="edgeStyle=orthogonalEdgeStyle;rounded=0;orthogonalLoop=1;jettySize=auto;html=1;exitX=0.5;exitY=1;exitDx=0;exitDy=0;entryX=0.5;entryY=0;entryDx=0;entryDy=0;" edge="1" parent="tAxHid7WyzssdA7N4AqU-1" source="tAxHid7WyzssdA7N4AqU-46" target="tAxHid7WyzssdA7N4AqU-48">
          <mxGeometry relative="1" as="geometry" />
        </mxCell>
        <mxCell id="tAxHid7WyzssdA7N4AqU-46" value="Acknowledge the message" style="ellipse;whiteSpace=wrap;html=1;" vertex="1" parent="tAxHid7WyzssdA7N4AqU-1">
          <mxGeometry x="155" y="516.25" width="120" height="47.5" as="geometry" />
        </mxCell>
        <mxCell id="tAxHid7WyzssdA7N4AqU-48" value="" style="ellipse;html=1;shape=endState;fillColor=#000000;strokeColor=#ff0000;" vertex="1" parent="tAxHid7WyzssdA7N4AqU-1">
          <mxGeometry x="200" y="600" width="30" height="25" as="geometry" />
        </mxCell>
      </root>
    </mxGraphModel>
  </diagram>
</mxfile>
